<?xml version="1.0" encoding="UTF-8"?>
<svg xmlns="http://www.w3.org/2000/svg" viewBox="0 0 1874.07 1874.57">
  <defs>
    <style>
      .cls-1 {
        fill: #8c8b65;
        opacity: .3;
        stroke: #231815;
        stroke-miterlimit: 10;
      }

      .cls-2 {
        fill: #7d8e9c;
      }
    </style>
  </defs>
  <g id="_图层_2" data-name="图层 2">
    <path class="cls-1" d="M937.04,1874.07c152.8,0,297.06-36.58,424.5-101.46-67.48-204.28-272.55-408.02-556.05-524.84-281.34-115.93-568.18-116.71-759.99-21.48,121.89,375.96,474.97,647.78,891.54,647.78Z"/>
  </g>
  <g id="_图层_1" data-name="图层 1">
    <g>
      <path class="cls-2" d="M937.04,0C419.53,0,0,419.53,0,937.04c0,100.94,15.96,198.15,45.5,289.25,362.16-22.37,737.41,154.86,737.41,154.86,0,0,373.09,134.7,578.62,391.46,304.18-154.84,512.54-470.87,512.54-835.58C1874.07,419.53,1454.55,0,937.04,0ZM843.85,400.55c5-19.47,26.87-11.67,26.87-11.67,2.06.59,20.47,6.21,33.91,22.3,6.37,7.63,5.36,18.98-2.27,25.35-3.95,3.3-8.89,4.62-13.63,4.07-4.42-.51-8.65-2.66-11.73-6.34-6.03-7.21-15.02-10.37-16.22-10.77-.54-.06-22.14-2.71-16.94-22.94ZM607.55,741.31c-14.7-38.65-13.88-81.56,2.3-120.83,16.18-39.27,45.84-70.3,83.5-87.37,38.05-17.25,79.68-18.22,117.23-2.75,77.11,31.78,112.53,123.91,78.96,205.38-16.18,39.27-45.84,70.3-83.5,87.37-20.11,9.11-41.21,13.68-62.19,13.68-18.72,0-37.33-3.64-55.04-10.94-37.55-15.47-66.41-45.5-81.26-84.54ZM1092.57,1200.93c-24.88,24.43-122.67,54.32-188.94-98.66-138.5,61.16-257.98-36.96-191.88-108.41,0,0,62.28-90.24,250.51-9.07,140.87,60.75,173.82,173.42,130.31,216.14ZM1403.4,655.14c2.72-19.92,25.33-14.7,25.33-14.7,2.11.35,21.05,3.8,36.27,18.22,7.21,6.84,7.52,18.23.68,25.45-3.54,3.73-8.3,5.62-13.07,5.62-4.45,0-8.9-1.64-12.38-4.94-6.82-6.47-16.11-8.56-17.35-8.82-.54,0-22.3-.13-19.48-20.82ZM1470.8,987.29c-25.19,61.12-82.94,98.58-142.5,98.58-17.96,0-36.08-3.4-53.53-10.59-36.68-15.11-64.87-44.44-79.37-82.57-14.35-37.74-13.56-79.64,2.24-117.98,15.8-38.34,44.75-68.64,81.53-85.31,37.16-16.84,77.82-17.8,114.5-2.68,36.68,15.11,64.87,44.44,79.37,82.57,14.35,37.74,13.55,79.64-2.24,117.98Z"/>
      <path class="cls-2" d="M857.98,627.28c-.2-.52-.99-.29-.87.26,3.29,14.83,2.34,30.25-3.61,44.7-17.38,42.18-70.86,60.14-119.44,40.12-48.59-20.02-73.88-70.44-56.5-112.62,4.33-10.51,10.92-19.51,19.1-26.8.4-.36-.07-1-.53-.72-23.55,13.99-42.11,35.59-52.98,61.99-12.68,30.77-13.37,64.27-1.94,94.32,1.37,3.61,2.9,7.12,4.58,10.51-.48-1.64-.9-3.3-1.24-5.01-1.11-5.71,2.21-11.32,8.08-13.62,5.82-2.28,12.05-.39,15.16,4.6,15.08,24.26,47.12,37.75,47.45,37.89,29,12.05,43.2,11.83,53.58,11.67,2.28-.04,4.44-.07,6.56.03.27.01.55.03.82.07,9.9,1.16,12.34,14.54,3.76,19.61-.68.4-1.37.79-2.06,1.17,4.48-1.42,8.92-3.12,13.3-5.1,29.29-13.27,52.4-37.53,65.08-68.3,13.15-31.91,12.83-65.85,1.72-94.74Z"/>
      <path class="cls-2" d="M1443.26,894.19c-.11-.4-.71-.29-.67.12.9,10.48-.54,21.02-4.66,31.01-16.35,39.67-68.57,55.78-116.65,35.96-48.08-19.81-73.8-68.03-57.45-107.71,3.62-8.79,9.01-16.42,15.72-22.76.3-.28-.06-.75-.41-.53-21.33,13.58-38.16,33.76-48.22,58.16-12.3,29.84-12.96,62.32-1.88,91.47,1.98,5.21,4.3,10.19,6.92,14.94.2.36.74.12.62-.27-.7-2.31-1.26-4.7-1.65-7.17-.91-5.72,2.69-11.36,8.56-13.43,5.48-1.93,11.22.07,13.96,4.86,12.72,22.24,40.71,34.07,40.99,34.18,25.42,10.57,37.99,10.01,47.17,9.61,2.06-.09,4.01-.18,5.95-.14.26,0,.52.02.78.04,9.58.86,12.39,13.62,4.36,18.91-4.4,2.89-8.96,5.1-13.58,6.73-.39.14-.25.72.16.66,39.92-5.57,76.89-33.2,94.22-75.25h0c10.62-25.78,12.56-53.52,5.75-79.39Z"/>
    </g>
  </g>
</svg>